#!OML:ASF X:\für Bonn\!DataBase\2005_08_12_Daniel\c3d\Daniel.ASF
:FULLY-SPECIFIED
:DEGREES
196
root 12.9934 1.79218 1.46061 -668.053 -81.3231 -138.155
lowerback 69.0729 -8.86662 13.9601
upperback 13.4205 -5.41661 -1.48087
thorax -5.91861 -4.22693 -4.68323
lowerneck -7.57006 1.93587 -7.54619
upperneck 5.82268 3.69593 -7.0726
head 3.22498 1.26653 -0.825794
rclavicle 2.95879e-014 3.05631e-014
rhumerus -62.0559 -10.7898 -67.8303
rradius 10.7889
rwrist 60.1602
rhand -66.95 -450.843
rfingers 7.12502
rthumb -38.7397 -294.751
lclavicle 2.95879e-014 3.05631e-014
lhumerus -410.721 13.8417 -271.883
lradius 28.6991
lwrist 5.59349
lhand -71.9611 321.82
lfingers 7.12502
lthumb -43.4446 345.907
rfemur 116.32 -149.15 178.586
rtibia 126.49
rfoot 43.4527 30.8147
rtoes 6.83925
lfemur -62.7208 32.2697 -19.8821
ltibia 117.905
lfoot 21.5997 2.31506
ltoes 14.1565
197
root 13.0263 1.77829 1.43629 -667.457 -81.4797 -138.95
lowerback 69.4735 -8.61705 13.6851
upperback 13.3155 -5.25643 -1.30244
thorax -5.99839 -4.1968 -4.42556
lowerneck -8.03915 1.89477 -7.59644
upperneck 5.96597 3.6874 -6.51547
head 3.35042 1.27516 -0.62804
rclavicle -5.7337e-015 4.3186e-014
rhumerus -61.7732 -8.87976 -70.4904
rradius 11.363
rwrist 56.8894
rhand -66.9626 -450.008
rfingers 7.12502
rthumb -38.7516 -295.583
lclavicle -5.7337e-015 4.3186e-014
lhumerus -410.705 13.7186 -271.653
lradius 29.0333
lwrist 5.73598
lhand -71.7981 323.291
lfingers 7.12502
lthumb -43.2922 347.433
rfemur 116.438 -149.759 179.211
rtibia 126.214
rfoot 42.3946 28.8471
rtoes 8.35991
lfemur -62.4033 32.19 -19.6925
ltibia 117.679
lfoot 21.6126 2.58542
ltoes 14.1198
198
root 13.0563 1.76638 1.40948 -666.941 -81.6385 -139.593
lowerback 69.7511 -8.34878 13.4062
upperback 13.2584 -5.10147 -1.13536
thorax -6.03465 -4.16397 -4.18456
lowerneck -8.46476 1.85483 -7.66913
upperneck 6.07232 3.67106 -5.94672
head 3.45522 1.28401 -0.422535
rclavicle 1.45874e-014 -8.79622e-015
rhumerus -61.5779 -7.31005 -72.689
rradius 11.8878
rwrist 54.1668
rhand -66.9246 -270.745
rfingers 7.12502
rthumb -38.7157 -296.346
lclavicle 1.45874e-014 -8.79622e-015
lhumerus -410.631 13.6418 -271.49
lradius 29.316
lwrist 5.77931
lhand -71.6509 324.712
lfingers 7.12502
lthumb -43.1547 348.903
rfemur 116.527 -150.42 179.984
rtibia 125.78
rfoot 41.5069 26.7916
rtoes 9.77449
lfemur -62.1926 32.0444 -19.5615
ltibia 117.47
lfoot 21.5473 2.93606
ltoes 13.6886
199
root 13.0823 1.75549 1.3818 -666.291 -81.7637 -140.334
lowerback 69.975 -8.08129 13.1424
upperback 13.2226 -4.94914 -0.964816
thorax -6.04979 -4.13179 -3.94716
lowerneck -8.84794 1.825 -7.81865
upperneck 6.14453 3.66709 -5.39815
head 3.54005 1.29873 -0.209565
rclavicle 1.27346e-014 2.6339e-014
rhumerus -61.4315 -5.93943 -74.5602
rradius 12.3888
rwrist 51.9177
rhand -66.9492 -271.57
rfingers 7.12502
rthumb -38.739 -297.164
lclavicle 1.27346e-014 2.6339e-014
lhumerus -410.488 13.694 -271.393
lradius 29.4901
lwrist 5.72707
lhand -71.5029 325.951
lfingers 7.12502
lthumb -43.0164 350.191
rfemur 116.682 -151.184 180.913
rtibia 125.163
rfoot 40.7556 24.6496
rtoes 10.7822
lfemur -62.071 31.9093 -19.4255
ltibia 117.305
lfoot 21.4359 3.26542
ltoes 13.1652
200
root 13.1075 1.74522 1.35353 -665.685 -81.877 -140.971
lowerback 70.13 -7.83295 12.8951
upperback 13.1865 -4.81482 -0.831573
thorax -6.07586 -4.0995 -3.75256
lowerneck -9.12042 1.80611 -7.96667
upperneck 6.17591 3.66094 -4.84461
head 3.58969 1.31744 0.00397205
rclavicle 1.62506e-014 -3.58806e-014
rhumerus -61.3491 -4.92813 -75.9812
rradius 12.795
rwrist 50.2697
rhand -66.9314 -272.394
rfingers 7.12502
rthumb -38.7222 -297.993
lclavicle 1.62506e-014 -3.58806e-014
lhumerus -410.353 13.7606 -271.37
lradius 29.657
lwrist 5.6652
lhand -71.3367 327.1
lfingers 7.12502
lthumb -42.8609 351.395
rfemur 116.805 -151.963 181.866
rtibia 124.46
rfoot 40.1701 22.7674
rtoes 11.1219
lfemur -62.0157 31.6955 -19.3219
ltibia 117.135
lfoot 21.2632 3.70353
ltoes 12.8242
